<svg width="24" height="24" viewBox="0 0 24 24" fill="none" xmlns="http://www.w3.org/2000/svg">
<rect width="24" height="24" rx="12" fill="#FFB800"/>
<path d="M11.1016 14.7812C11.1016 14.401 11.1198 14.0859 11.1562 13.8359C11.1927 13.5807 11.2578 13.3594 11.3516 13.1719C11.4453 12.9792 11.5807 12.7917 11.7578 12.6094C11.9401 12.4219 12.1771 12.2057 12.4688 11.9609C12.7812 11.6953 13.0312 11.4349 13.2188 11.1797C13.4115 10.9193 13.5521 10.6615 13.6406 10.4062C13.7344 10.1458 13.7812 9.88021 13.7812 9.60938C13.7812 9.11458 13.6458 8.73177 13.375 8.46094C13.1094 8.1901 12.7318 8.05469 12.2422 8.05469C11.8255 8.05469 11.4688 8.16927 11.1719 8.39844C10.8802 8.6276 10.7344 8.96875 10.7344 9.42188H8.82812L8.8125 9.375C8.80208 8.77083 8.94271 8.2526 9.23438 7.82031C9.52604 7.38281 9.92969 7.04688 10.4453 6.8125C10.9661 6.57812 11.5651 6.46094 12.2422 6.46094C13.3464 6.46094 14.2057 6.73698 14.8203 7.28906C15.4401 7.83594 15.75 8.59115 15.75 9.55469C15.75 10.0078 15.6667 10.4245 15.5 10.8047C15.3385 11.1797 15.1068 11.5443 14.8047 11.8984C14.5026 12.2474 14.1406 12.6172 13.7188 13.0078C13.5312 13.1797 13.3906 13.3438 13.2969 13.5C13.2031 13.6562 13.1406 13.8333 13.1094 14.0312C13.0781 14.224 13.0625 14.474 13.0625 14.7812H11.1016ZM11.0859 18V16.1562H13.0859V18H11.0859Z" fill="black"/>
</svg>
